<?xml version="1.0"?>
<svg width="100" height="100" xmlns="http://www.w3.org/2000/svg">
 <g>
  <title>Layer 1</title>
  <g id="Captions"/>
  <g transform="rotate(180 51.11000061035156,49.73650360107422) " id="Your_Icon">
   <path fill="#4387fd" d="m98.842003,74.561996l-0.089005,-41.724995c-0.694,-0.799004 -1.907997,-0.879002 -2.710999,-0.172001l-9.795998,8.509998c-4.806999,-6.662998 -17.240005,-20.016998 -39.747002,-20.016998c-26.861,0 -42.101001,22.987999 -42.101001,22.987999l-1.437,1.796001c0,0 17.491,-13.284 37.686999,-6.239002c13.224003,4.615002 19.908001,13.962002 23.198002,20.921001l-9.497002,8.248001c-0.808998,0.707001 -0.900997,1.931 -0.209999,2.736l41.457001,6.062996c1.175003,0.249001 2.056999,0.644005 2.859001,-0.062996c0.804001,-0.697998 0.418999,-1.796005 0.387001,-3.046005z"/>
  </g>
 </g>
</svg>