<svg xmlns="http://www.w3.org/2000/svg" xmlns:xlink="http://www.w3.org/1999/xlink" version="1.1" id="Layer_1" x="0px" y="0px" width="100px" height="100px" viewBox="0 0 100 100" enable-background="new 0 0 100 100" xml:space="preserve">
<g>
	<path d="M50,0C22.43,0,0,22.43,0,50C0,77.57,22.43,100,50,100C77.57,100,100,77.57,100,50C100,22.43,77.57,0,50,0z M93.033,49.073   H75.479c-0.205-5.671-2.267-10.874-5.599-15.019l6.29-6.29c1.086-1.086,1.086-2.848,0-3.935s-2.849-1.086-3.935,0l-6.29,6.29   c-4.145-3.332-9.348-5.394-15.019-5.598V6.967C73.926,7.456,92.544,26.073,93.033,49.073z M50.927,26.376   c5.159,0.2,9.897,2.061,13.699,5.063L50.927,45.138V26.376z M49.073,46.993l-1.04,1.04c-0.303,0.303-0.513,0.661-0.646,1.04h-21.01   c0.477-12.302,10.394-22.219,22.696-22.696V46.993z M47.386,50.928c0.135,0.378,0.344,0.736,0.647,1.04   c0.303,0.303,0.66,0.512,1.039,0.646v21.01C36.77,73.146,26.854,63.23,26.376,50.928H47.386z M50.927,52.614   c0.379-0.134,0.737-0.343,1.04-0.646l1.04-1.04h20.616C73.147,63.23,63.23,73.146,50.927,73.624V52.614z M54.862,49.073   L68.56,35.374c3.002,3.801,4.863,8.54,5.063,13.699H54.862z M49.073,6.967v17.555c-13.325,0.479-24.072,11.226-24.551,24.551H6.967   C7.456,26.073,26.073,7.456,49.073,6.967z M6.967,50.928h17.555c0.479,13.325,11.226,24.071,24.551,24.551v17.554   C26.073,92.544,7.456,73.927,6.967,50.928z M50.927,93.033V75.479c13.325-0.479,24.071-11.226,24.552-24.551h17.554   C92.544,73.927,73.926,92.544,50.927,93.033z"/>
	<circle cx="58.033" cy="19.364" r="2.627"/>
	<circle cx="43.427" cy="37.37" r="2.241"/>
	<circle cx="20.244" cy="33.274" r="4.095"/>
</g>
</svg>