<svg xmlns="http://www.w3.org/2000/svg" xmlns:xlink="http://www.w3.org/1999/xlink" version="1.1" x="0px" y="0px" width="100px" height="100px" viewBox="0 0 100 100" enable-background="new 0 0 100 100" xml:space="preserve">
<g id="Captions">
</g>
<g id="Your_Icon">
	<path fill="#000000" d="M98.842,74.562l-0.089-41.725c-0.694-0.799-1.908-0.879-2.711-0.172l-9.796,8.51   c-4.807-6.663-17.24-20.017-39.747-20.017c-26.861,0-42.101,22.988-42.101,22.988l-1.437,1.796c0,0,17.491-13.284,37.687-6.239   c13.224,4.615,19.908,13.962,23.198,20.921l-9.497,8.248c-0.809,0.707-0.901,1.931-0.21,2.736l41.457,6.063   c1.175,0.249,2.057,0.644,2.859-0.063C99.259,76.91,98.874,75.812,98.842,74.562z"/>
</g>
</svg>