<svg xmlns="http://www.w3.org/2000/svg" xmlns:xlink="http://www.w3.org/1999/xlink" version="1.1" x="0px" y="0px" height="32" width="32"><path style="-webkit-tap-highlight-color: rgba(0, 0, 0, 0);" fill="green" stroke="none" d="M16,2C8.268,2,2,8.268,2,16S8.268,30,16,30S30,23.732,30,16S23.732,2,16,2ZM23.83,13.83L14.848999999999998,22.811999999999998C14.379999999999999,23.276999999999997,13.619999999999997,23.276999999999997,13.151999999999997,22.811999999999998L7.7769999999999975,17.435C7.307999999999997,16.965999999999998,7.307999999999997,16.206,7.7769999999999975,15.738L8.907999999999998,14.607C9.376999999999997,14.138,10.136999999999997,14.138,10.604999999999997,14.607L14,18L21,11C21.469,10.531,22.229,10.531,22.695,11L23.830000000000002,12.133C24.297,12.602,24.297,13.361,23.83,13.83Z" stroke-width="0" transform="matrix(1,0,0,1,0,0)"></path></svg>