<svg xmlns="http://www.w3.org/2000/svg" xmlns:xlink="http://www.w3.org/1999/xlink" version="1.1" id="Layer_1" x="0px" y="0px" width="100.0px" height="100px" viewBox="0 0 500 500" enable-background="new 0 0 500 500" xml:space="preserve">
<path d="M307.875,103.55V71.024c0-8.091-6.556-14.647-14.638-14.647c-8.105,0-14.651,6.561-14.651,14.647v26.463  c-9.029-1.036-18.589-1.529-28.496-1.529c-54.85,0.005-99.321,14.78-99.321,55.467v235.853c0,40.688,44.471,55.463,99.321,55.463  c54.84,0,99.301-14.78,99.301-55.463V151.425C349.391,126.748,332.977,111.646,307.875,103.55z M217.451,405.838  c0,5.466-2.65,7.431-10.115,7.431h-16.265c-7.45,0-10.114-1.969-10.114-7.431v-19.269c0-5.478,3.789-7.446,11.234-7.446h15.145  c7.465,0,10.115,2.793,10.115,8.269V405.838z M217.451,362.251c0,5.472-2.65,7.435-10.115,7.435h-16.265  c-7.45,0-10.114-1.963-10.114-7.435v-19.27c0-5.477,3.789-7.439,11.234-7.439h15.145c7.465,0,10.115,2.786,10.115,8.264V362.251z   M217.451,318.664c0,5.477-2.65,7.439-10.115,7.439h-16.265c-7.45,0-10.114-1.963-10.114-7.439v-19.271  c0-5.47,3.789-7.433,11.234-7.433h15.145c7.465,0,10.115,2.786,10.115,8.263V318.664z M268.339,405.838  c0,5.466-2.65,7.431-10.119,7.431h-16.261c-7.465,0-10.124-1.969-10.124-7.431v-19.269c0-5.478,3.794-7.446,11.238-7.446h15.146  c7.469,0,10.119,2.793,10.119,8.269V405.838z M268.339,362.251c0,5.472-2.65,7.435-10.119,7.435h-16.261  c-7.465,0-10.124-1.963-10.124-7.435v-19.27c0-5.477,3.794-7.439,11.238-7.439h15.146c7.469,0,10.119,2.786,10.119,8.264V362.251z   M268.339,318.664c0,5.477-2.65,7.439-10.119,7.439h-16.261c-7.465,0-10.124-1.963-10.124-7.439v-19.271  c0-5.47,3.794-7.433,11.238-7.433h15.146c7.469,0,10.119,2.786,10.119,8.263V318.664z M319.218,405.838  c0,5.466-2.669,7.431-10.114,7.431h-16.276c-7.453,0-10.112-1.969-10.112-7.431v-19.269c0-5.478,3.795-7.446,11.243-7.446h15.146  c7.445,0,10.114,2.793,10.114,8.269V405.838z M319.218,362.251c0,5.472-2.669,7.435-10.114,7.435h-16.276  c-7.453,0-10.112-1.963-10.112-7.435v-19.27c0-5.477,3.795-7.439,11.243-7.439h15.146c7.445,0,10.114,2.786,10.114,8.264V362.251z   M319.218,318.664c0,5.477-2.669,7.439-10.114,7.439h-16.276c-7.453,0-10.112-1.963-10.112-7.439v-19.271  c0-5.47,3.795-7.433,11.243-7.433h15.146c7.445,0,10.114,2.786,10.114,8.263V318.664z M328.23,245.644  c0,23.444-11.42,31.84-43.311,31.84h-69.665c-31.89,0-43.321-8.396-43.321-31.84v-82.522c0-23.448,16.241-31.85,48.146-31.85h64.84  c31.891,0,43.311,11.928,43.311,35.377V245.644z"/>
</svg>