<?xml version="1.0" encoding="utf-8"?>
<!-- Generator: Adobe Illustrator 15.1.0, SVG Export Plug-In . SVG Version: 6.00 Build 0)  -->
<!DOCTYPE svg PUBLIC "-//W3C//DTD SVG 1.1//EN" "http://www.w3.org/Graphics/SVG/1.1/DTD/svg11.dtd">
<svg version="1.1" id="Layer_1" xmlns="http://www.w3.org/2000/svg" xmlns:xlink="http://www.w3.org/1999/xlink" x="0px" y="0px"
	 width="100px" height="100px" viewBox="0 0 100 100" enable-background="new 0 0 100 100" xml:space="preserve">
<polygon points="46.571,67.571 32.429,53.429 10.429,75.429 0,65 0,100 35,100 24.571,89.571 "/>
<polygon points="32.429,46.571 46.571,32.429 24.571,10.429 35,0 0,0 0,35 10.429,24.571 "/>
<polygon points="67.571,53.429 53.429,67.571 75.429,89.571 65,100 100,100 100,65 89.571,75.429 "/>
<polygon points="65,0 75.429,10.429 53.429,32.429 67.571,46.571 89.571,24.571 100,35 100,0 "/>
</svg>
